<svg xmlns:xlink="http://www.w3.org/1999/xlink" id="carik" xmlns="http://www.w3.org/2000/svg"
     viewBox="0 0 1080 1080">
    <defs>
        <style>
            .cls-1{fill:#fff;}.cls-2{fill:url(#linear-gradient);}.cls-3{fill:url(#linear-gradient-2);}.cls-4{fill:url(#linear-gradient-3);}.cls-5{fill:url(#linear-gradient-4);}.cls-6{fill:url(#linear-gradient-5);}.cls-7{fill:url(#linear-gradient-6);}.cls-8{fill:url(#linear-gradient-7);}
        </style>
        <linearGradient id="linear-gradient" x1="488.4" y1="386.12" x2="525.35" y2="450.13"
                        gradientUnits="userSpaceOnUse">
            <stop offset="0.04" stop-color="#40a8d9"/>
            <stop offset="0.45" stop-color="#69d4f9"/>
            <stop offset="0.61" stop-color="#65d0f7"/>
            <stop offset="0.77" stop-color="#59c5f0"/>
            <stop offset="0.93" stop-color="#45b2e4"/>
            <stop offset="1" stop-color="#3aa8de"/>
        </linearGradient>
        <linearGradient id="linear-gradient-2" x1="562.49" y1="460.19" x2="599.42" y2="524.15"
                        xlink:href="#linear-gradient"/>
        <linearGradient id="linear-gradient-3" x1="488.4" y1="460.19" x2="525.35" y2="524.2"
                        xlink:href="#linear-gradient"/>
        <linearGradient id="linear-gradient-4" x1="404.85" y1="563.76" x2="451.39" y2="644.36"
                        gradientUnits="userSpaceOnUse">
            <stop offset="0.02" stop-color="#59c2ec"/>
            <stop offset="0.09" stop-color="#5ec8f0"/>
            <stop offset="0.27" stop-color="#67d1f7"/>
            <stop offset="0.52" stop-color="#69d4f9"/>
            <stop offset="0.65" stop-color="#64cff6"/>
            <stop offset="0.8" stop-color="#56c2ee"/>
            <stop offset="0.97" stop-color="#3face0"/>
            <stop offset="1" stop-color="#39a7dd"/>
        </linearGradient>
        <linearGradient id="linear-gradient-5" x1="636.39" y1="563.72" x2="682.95" y2="644.35"
                        xlink:href="#linear-gradient-4"/>
        <linearGradient id="linear-gradient-6" x1="522.76" y1="590.7" x2="565.06" y2="663.96"
                        gradientTransform="translate(1029.49 -46.16) rotate(76.72)" xlink:href="#linear-gradient-4"/>
        <linearGradient id="linear-gradient-7" x1="245.25" y1="29.76" x2="834.4" y2="1050.19"
                        gradientUnits="userSpaceOnUse">
            <stop offset="0.21" stop-color="#1a7fbc"/>
            <stop offset="0.36" stop-color="#4cb5e3"/>
            <stop offset="0.45" stop-color="#69d4f9"/>
            <stop offset="0.59" stop-color="#53c0ec"/>
            <stop offset="0.87" stop-color="#1c8bcc"/>
            <stop offset="1" stop-color="#0071bc"/>
        </linearGradient>
    </defs>
    <title>carik logo</title>
    <rect class="cls-1" x="32.68" y="32.81" width="1014.32" height="1014.32" rx="181.67"/>
    <rect class="cls-2" x="479.82" y="391.07" width="54.11" height="54.11"/>
    <rect class="cls-3" x="553.91" y="465.14" width="54.08" height="54.06"/>
    <rect class="cls-4" x="479.82" y="465.14" width="54.11" height="54.11"/>
    <path class="cls-5" d="M428.07,557.54a46.53,46.53,0,1,0,46.57,46.55V604A46.51,46.51,0,0,0,428.07,557.54Z"/>
    <path class="cls-6" d="M659.66,650.55l0,0a46.54,46.54,0,0,0,46.51-46.5V604a46.53,46.53,0,1,0-46.53,46.53Z"/>
    <circle class="cls-7" cx="543.91" cy="627.33" r="42.29" transform="translate(-191.6 1012.56) rotate(-76.72)"/>
    <path class="cls-8"
          d="M990.59,142.67c-42.94,37.48-84.46,69-121.65,92.83l14.55,14.55-17.72,24-18.21-16.29L766.74,388s-51.49,8.19-90.68,19.24c-23.17,6.53-70.59,23.29-97.79,32l114.88-115.5a6,6,0,0,1,6.35-1.42c11.36,4.36,27.37,2.42,36.85-8.5,10.92-12.63,9.63-34.56-2.18-46.37s-33.38-13-45.11-1.49c-8.54,8.39-11.36,22.11-9.3,33.77A10.82,10.82,0,0,1,677.05,310L564.2,422.09c8.74-27.18,24-70.6,30.19-93.69,11.21-41.09,21.84-93.14,21.84-93.14L745.4,154.33l-17.48-17.8,24-17.72,14.55,14.55c13.93-21.82,30.55-45.13,49.44-69.32H230.59A166.69,166.69,0,0,0,63.91,230.72V849.21a166.68,166.68,0,0,0,166.68,166.68h618.5a166.67,166.67,0,0,0,166.67-166.68V230.72A165.83,165.83,0,0,0,990.59,142.67ZM577.51,320.49c-4.26,15.73-13.11,42-20.93,65.2-.59,1.77-1.14,3.56-1.7,5.33h-1v3.15c-2.14,7.12-4,14.31-5.55,22.24-1.52,8.82-1.5,17.08,5.55,27v1.73h1.27c6,7.43,10.81,9.92,19.11,11.45a41.37,41.37,0,0,0,12.56-.66c9.64-3.1,21.61-7.05,34.28-11.42,22.58-7.63,48.18-16.28,62.77-20.38,21.43-6,46.92-11.23,65-14.62V754.26H735.43v-26a69.89,69.89,0,0,0-69.59-69.6h-5.79a69.9,69.9,0,0,0-63.93,42.16,63.22,63.22,0,0,0-49.59-24.18h-5.26a63.2,63.2,0,0,0-49.59,24.18,69.9,69.9,0,0,0-63.93-42.16H422a69.91,69.91,0,0,0-69.64,69.53v26H338.91V406.9l205-151,42.09,31C583.32,298.1,580.41,309.7,577.51,320.49ZM952.25,421.41c-17.52,21.47-21.12,47.51-23.46,73.72-2.36,26.58-3.88,53.25-5.85,79.88a192.53,192.53,0,0,1-4.76,31.22c-6.08,24.7-15.9,46.61-43.69,54.61,3.63,4.28,7.08,7.75,9.79,11.7,9.61,14,11.25,29.36,7,45.66-5.64,22-18.42,40.36-30.58,59-16.63,25.41-35.63,49.26-49.22,76.61-6.9,13.91-12.08,28.4-12.69,44.14-.11,2.84-.28,4.94-4.08,3.46-23.81-9.33-47.8-5.31-71.69-.59-31,6.11-61,16.42-92.14,22.15-7,1.28-14,2.49-21.08,3.1-25.1,2.16-48.64-.5-65.16-22.48-2.47.9-2.66,2.82-3.45,4.24-11.53,20.6-30.14,27.89-52.42,27.48-24-.46-46.84-7.32-69.64-14-26.06-7.69-51.81-16.6-78.92-20.2-14.61-1.95-29.23-2.34-43.69,1.68-2.29.63-5.07,2.18-4.78-2.43,1.4-23.57-8-44-18.79-64-14.83-27.37-33.33-52.51-48.82-79.51-10-17.51-19.24-35.23-21.64-55.7a52.72,52.72,0,0,1,8.23-35.73c1.73-2.71,3.87-5-1.53-5.79-27.11-4.15-39.88-22.39-46.2-47.07s-6-50-6.7-75.23c-.81-27.9-.53-55.9-7.54-83.25A94.31,94.31,0,0,0,136,424.49c-1.45-2.16-2.6-3.85.91-4.79,24.93-6.68,42.49-23.72,58.72-42.31,19.81-22.69,39-45.95,58.78-68.67a156.28,156.28,0,0,1,33.94-30.21c14.68-9.26,30.35-13.63,47.6-8.41,3.54,1.09,4.89.92,4.24-3.45-4-26.17,8.28-44.32,29.38-57.74C391.49,195,416,186.44,440.13,178.2s48.25-16.36,70.56-29a100.63,100.63,0,0,0,32.17-27.61c11.95,18.67,29.16,30,48.39,39.64s39.42,17.06,59.41,24.93l-42.55,26.67A20.22,20.22,0,0,0,599,226c0,.22-1.92,9.37-4.87,22.87l-50.24-37L232.79,441.2l7.08,37.7H291V441.2h12.51V789.58H784.28V441.2h12.51v37.72H848l7.08-37.7-67.5-49.74,53.74-86.67c15.77,18.48,29.64,38.49,45,57.25a350.83,350.83,0,0,0,27.28,30.78C924.27,403.1,935.85,412,950,417.11,952.08,417.85,954.77,418.42,952.25,421.41Z"/>
</svg>
